<svg xmlns="http://www.w3.org/2000/svg" width="55.905" height="55.893" viewBox="0 0 55.905 55.893">
  <path id="Icon_awesome-instagram" data-name="Icon awesome-instagram" d="M27.953,15.854a14.33,14.33,0,1,0,14.33,14.33A14.307,14.307,0,0,0,27.953,15.854Zm0,23.647a9.316,9.316,0,1,1,9.316-9.316A9.333,9.333,0,0,1,27.953,39.5ZM46.212,15.268a3.342,3.342,0,1,1-3.342-3.342A3.335,3.335,0,0,1,46.212,15.268ZM55.7,18.66c-.212-4.477-1.235-8.443-4.515-11.711s-7.234-4.29-11.711-4.515c-4.615-.262-18.446-.262-23.06,0-4.465.212-8.431,1.235-11.711,4.5S.416,14.17.191,18.648c-.262,4.615-.262,18.446,0,23.06C.4,46.185,1.426,50.151,4.706,53.419s7.234,4.29,11.711,4.515c4.615.262,18.446.262,23.06,0,4.477-.212,8.443-1.235,11.711-4.515s4.29-7.234,4.515-11.711c.262-4.615.262-18.433,0-23.048Zm-5.962,28a9.432,9.432,0,0,1-5.313,5.313c-3.679,1.459-12.409,1.122-16.475,1.122s-12.809.324-16.475-1.122a9.432,9.432,0,0,1-5.313-5.313C4.706,42.98,5.043,34.25,5.043,30.184S4.718,17.375,6.165,13.709A9.432,9.432,0,0,1,11.478,8.4c3.679-1.459,12.409-1.122,16.475-1.122S40.762,6.949,44.429,8.4a9.432,9.432,0,0,1,5.313,5.313c1.459,3.679,1.122,12.409,1.122,16.475S51.2,42.993,49.742,46.659Z" transform="translate(0.005 -2.237)" fill="#c4333a"/>
</svg>
