<svg xmlns="http://www.w3.org/2000/svg" width="78.993" height="79.003" viewBox="0 0 78.993 79.003">
  <path id="Icon_awesome-check-double" data-name="Icon awesome-check-double" d="M77.915,26.97l-6.109-6.109a3.687,3.687,0,0,0-5.23,0l-36.95,36.95-17.187-17.2a3.687,3.687,0,0,0-5.23,0L1.084,46.733a3.706,3.706,0,0,0,0,5.246L27,77.913a3.687,3.687,0,0,0,5.23,0L77.9,32.216A3.72,3.72,0,0,0,77.915,26.97ZM27.883,43.324a2.449,2.449,0,0,0,3.487,0L63.459,11.2a2.477,2.477,0,0,0,0-3.487L56.486.727A2.449,2.449,0,0,0,53,.727L29.626,24.1l-8.547-8.563a2.449,2.449,0,0,0-3.487,0L10.6,22.527a2.477,2.477,0,0,0,0,3.487Z" transform="translate(0.004 0.002)" fill="#fff"/>
</svg>
