<svg xmlns="http://www.w3.org/2000/svg" width="26.65" height="26.65" viewBox="0 0 26.65 26.65">
  <g id="Group_17" data-name="Group 17" transform="translate(-3.375 -3.375)">
    <path id="Path_3" data-name="Path 3" d="M16.7,5.169A11.527,11.527,0,1,1,8.545,8.545,11.455,11.455,0,0,1,16.7,5.169m0-1.794A13.325,13.325,0,1,0,30.025,16.7,13.323,13.323,0,0,0,16.7,3.375Z" fill="#fff"/>
    <path id="Path_4" data-name="Path 4" d="M17.645,11.25c2.4,0,4.055,1.333,4.055,3.248a3.133,3.133,0,0,1-1.8,2.844c-1.115.647-1.493,1.121-1.493,1.941v.506H16.184l-.019-.551a2.667,2.667,0,0,1,1.512-2.819c1.083-.647,1.538-1.057,1.538-1.851a1.555,1.555,0,0,0-1.723-1.377,1.621,1.621,0,0,0-1.717,1.576H13.5C13.545,12.7,15.07,11.25,17.645,11.25ZM15.96,22.23a1.375,1.375,0,1,1,1.371,1.32A1.342,1.342,0,0,1,15.96,22.23Z" transform="translate(-0.9 -0.7)" fill="#fff"/>
  </g>
</svg>
